<mxfile host="app.diagrams.net" modified="2020-03-18T09:30:59.222Z" agent="Mozilla/5.0 (X11; Linux x86_64) AppleWebKit/537.36 (KHTML, like Gecko) Chrome/74.0.3729.169 Safari/537.36" etag="fokpNBXA3GqI-JCwT_tX" version="12.8.5" type="github">
  <diagram id="yg1paYqdCrh0pD1ITqRo" name="Page-1">
    <mxGraphModel dx="868" dy="390" grid="1" gridSize="10" guides="1" tooltips="1" connect="1" arrows="1" fold="1" page="1" pageScale="1" pageWidth="850" pageHeight="1100" math="0" shadow="0">
      <root>
        <mxCell id="0" />
        <mxCell id="1" parent="0" />
        <mxCell id="eWDfw4_UJDr3bdIwtCD6-1" value="" style="whiteSpace=wrap;html=1;rounded=0;shadow=0;labelBackgroundColor=none;strokeColor=#000000;strokeWidth=1;fillColor=none;fontFamily=Verdana;fontSize=12;fontColor=#000000;align=center;comic=0;" parent="1" vertex="1">
          <mxGeometry x="20" y="20" width="1060" height="610" as="geometry" />
        </mxCell>
        <mxCell id="eWDfw4_UJDr3bdIwtCD6-6" value="cari material barang" style="rounded=0;html=1;shadow=0;dashed=0;whiteSpace=wrap;fontSize=10;fillColor=#666666;align=center;strokeColor=#4D4D4D;fontColor=#ffffff;comic=0;" parent="1" vertex="1">
          <mxGeometry x="400" y="130" width="120" height="30" as="geometry" />
        </mxCell>
        <mxCell id="eWDfw4_UJDr3bdIwtCD6-8" value="" style="group" parent="1" vertex="1" connectable="0">
          <mxGeometry x="80" y="130" width="250" height="33" as="geometry" />
        </mxCell>
        <mxCell id="eWDfw4_UJDr3bdIwtCD6-9" value="nama outlet" style="fillColor=none;strokeColor=none;html=1;fontSize=11;fontStyle=0;align=left;fontColor=#596780;fontStyle=1;fontSize=11;comic=0;" parent="eWDfw4_UJDr3bdIwtCD6-8" vertex="1">
          <mxGeometry y="6.5" width="70" height="20" as="geometry" />
        </mxCell>
        <mxCell id="eWDfw4_UJDr3bdIwtCD6-11" value="nama barang" style="fillColor=none;strokeColor=none;html=1;fontSize=11;fontStyle=0;align=left;fontColor=#596780;fontStyle=1;fontSize=11;comic=0;" parent="1" vertex="1">
          <mxGeometry x="80" y="170" width="70" height="20" as="geometry" />
        </mxCell>
        <mxCell id="eWDfw4_UJDr3bdIwtCD6-16" value="yyy-mm-ddd" style="group" parent="1" vertex="1" connectable="0">
          <mxGeometry x="80" y="80" width="250" height="33" as="geometry" />
        </mxCell>
        <mxCell id="eWDfw4_UJDr3bdIwtCD6-17" value="tanggal order" style="fillColor=none;strokeColor=none;html=1;fontSize=11;fontStyle=0;align=left;fontColor=#596780;fontStyle=1;fontSize=11;comic=0;" parent="eWDfw4_UJDr3bdIwtCD6-16" vertex="1">
          <mxGeometry y="6.5" width="70" height="20" as="geometry" />
        </mxCell>
        <mxCell id="eWDfw4_UJDr3bdIwtCD6-18" value="yyyy-mm-dd" style="rounded=0;arcSize=9;fillColor=#F7F8F9;align=left;spacingLeft=5;strokeColor=#000000;html=1;strokeWidth=1;fontColor=#596780;fontSize=12;comic=0;" parent="eWDfw4_UJDr3bdIwtCD6-16" vertex="1">
          <mxGeometry x="80" width="170" height="33" as="geometry" />
        </mxCell>
        <mxCell id="eWDfw4_UJDr3bdIwtCD6-19" value="kode order" style="fillColor=none;strokeColor=none;html=1;fontSize=11;fontStyle=0;align=left;fontColor=#596780;fontStyle=1;fontSize=11;comic=0;" parent="1" vertex="1">
          <mxGeometry x="80" y="360" width="70" height="20" as="geometry" />
        </mxCell>
        <mxCell id="eWDfw4_UJDr3bdIwtCD6-20" value="" style="shape=partialRectangle;right=0;left=0;strokeColor=#000000;fillColor=#ffffff;whiteSpace=wrap;" parent="1" vertex="1">
          <mxGeometry x="80" y="400" width="440" height="170" as="geometry" />
        </mxCell>
        <mxCell id="eWDfw4_UJDr3bdIwtCD6-21" value="" style="html=1;shadow=0;dashed=0;shape=mxgraph.bootstrap.horLines;strokeColor=inherit;fillColor=#000000;fillOpacity=3;resizeWidth=1;" parent="eWDfw4_UJDr3bdIwtCD6-20" vertex="1">
          <mxGeometry width="440" height="40" relative="1" as="geometry" />
        </mxCell>
        <mxCell id="eWDfw4_UJDr3bdIwtCD6-22" value="kd order" style="html=1;shadow=0;dashed=0;shape=mxgraph.bootstrap.rect;strokeColor=none;fillColor=none;fontSize=14;fontStyle=1;align=center;whiteSpace=wrap;resizeHeight=1;" parent="eWDfw4_UJDr3bdIwtCD6-21" vertex="1">
          <mxGeometry width="70" height="40" relative="1" as="geometry">
            <mxPoint x="3" as="offset" />
          </mxGeometry>
        </mxCell>
        <mxCell id="eWDfw4_UJDr3bdIwtCD6-23" value="id outlet" style="html=1;shadow=0;dashed=0;shape=mxgraph.bootstrap.rect;strokeColor=none;fillColor=none;fontSize=14;fontStyle=1;align=center;whiteSpace=wrap;resizeHeight=1;" parent="eWDfw4_UJDr3bdIwtCD6-21" vertex="1">
          <mxGeometry width="70" height="40" relative="1" as="geometry">
            <mxPoint x="88" as="offset" />
          </mxGeometry>
        </mxCell>
        <mxCell id="eWDfw4_UJDr3bdIwtCD6-24" value="order" style="html=1;shadow=0;dashed=0;shape=mxgraph.bootstrap.rect;strokeColor=none;fillColor=none;fontSize=14;fontStyle=1;align=center;whiteSpace=wrap;resizeHeight=1;" parent="eWDfw4_UJDr3bdIwtCD6-21" vertex="1">
          <mxGeometry width="60" height="40" relative="1" as="geometry">
            <mxPoint x="162" as="offset" />
          </mxGeometry>
        </mxCell>
        <mxCell id="eWDfw4_UJDr3bdIwtCD6-25" value="id barang" style="html=1;shadow=0;dashed=0;shape=mxgraph.bootstrap.rect;strokeColor=none;fillColor=none;fontSize=14;fontStyle=1;align=center;whiteSpace=wrap;resizeHeight=1;" parent="eWDfw4_UJDr3bdIwtCD6-21" vertex="1">
          <mxGeometry width="90" height="40" relative="1" as="geometry">
            <mxPoint x="220" as="offset" />
          </mxGeometry>
        </mxCell>
        <mxCell id="4aZbBNj6QW1r3uf6kM99-2" value="terpakai" style="html=1;shadow=0;dashed=0;shape=mxgraph.bootstrap.rect;strokeColor=none;fillColor=none;fontSize=14;fontStyle=1;align=center;whiteSpace=wrap;resizeHeight=1;" vertex="1" parent="eWDfw4_UJDr3bdIwtCD6-21">
          <mxGeometry width="90" height="40" relative="1" as="geometry">
            <mxPoint x="300" as="offset" />
          </mxGeometry>
        </mxCell>
        <mxCell id="4aZbBNj6QW1r3uf6kM99-3" value="rusak" style="html=1;shadow=0;dashed=0;shape=mxgraph.bootstrap.rect;strokeColor=none;fillColor=none;fontSize=14;fontStyle=1;align=center;whiteSpace=wrap;resizeHeight=1;" vertex="1" parent="eWDfw4_UJDr3bdIwtCD6-21">
          <mxGeometry width="70" height="40" relative="1" as="geometry">
            <mxPoint x="370" as="offset" />
          </mxGeometry>
        </mxCell>
        <mxCell id="eWDfw4_UJDr3bdIwtCD6-26" value="" style="strokeColor=#000000;fillColor=inherit;gradientColor=inherit;html=1;shadow=0;dashed=0;shape=mxgraph.bootstrap.horLines;resizeWidth=1;" parent="eWDfw4_UJDr3bdIwtCD6-20" vertex="1">
          <mxGeometry width="440" height="50" relative="1" as="geometry">
            <mxPoint y="120" as="offset" />
          </mxGeometry>
        </mxCell>
        <mxCell id="eWDfw4_UJDr3bdIwtCD6-27" value="" style="strokeColor=#000000;fillColor=inherit;gradientColor=inherit;html=1;shadow=0;dashed=0;shape=mxgraph.bootstrap.horLines;resizeWidth=1;" parent="eWDfw4_UJDr3bdIwtCD6-20" vertex="1">
          <mxGeometry y="35.79" width="440" height="34.21" as="geometry">
            <mxPoint y="140" as="offset" />
          </mxGeometry>
        </mxCell>
        <mxCell id="eWDfw4_UJDr3bdIwtCD6-28" value="bersihkan" style="rounded=0;html=1;shadow=0;dashed=0;whiteSpace=wrap;fontSize=10;fillColor=#666666;align=center;strokeColor=#4D4D4D;fontColor=#ffffff;comic=0;" parent="1" vertex="1">
          <mxGeometry x="330" y="360" width="80" height="30" as="geometry" />
        </mxCell>
        <mxCell id="eWDfw4_UJDr3bdIwtCD6-29" value="tambahkan" style="rounded=0;html=1;shadow=0;dashed=0;whiteSpace=wrap;fontSize=10;fillColor=#666666;align=center;strokeColor=#4D4D4D;fontColor=#ffffff;comic=0;" parent="1" vertex="1">
          <mxGeometry x="430" y="360" width="80" height="30" as="geometry" />
        </mxCell>
        <mxCell id="eWDfw4_UJDr3bdIwtCD6-30" value="" style="shape=partialRectangle;right=0;left=0;strokeColor=#000000;fillColor=#ffffff;whiteSpace=wrap;" parent="1" vertex="1">
          <mxGeometry x="620" y="190" width="440" height="380" as="geometry" />
        </mxCell>
        <mxCell id="eWDfw4_UJDr3bdIwtCD6-31" value="" style="html=1;shadow=0;dashed=0;shape=mxgraph.bootstrap.horLines;strokeColor=inherit;fillColor=#000000;fillOpacity=3;resizeWidth=1;" parent="eWDfw4_UJDr3bdIwtCD6-30" vertex="1">
          <mxGeometry width="440" height="40" relative="1" as="geometry" />
        </mxCell>
        <mxCell id="eWDfw4_UJDr3bdIwtCD6-32" value="id outlet" style="html=1;shadow=0;dashed=0;shape=mxgraph.bootstrap.rect;strokeColor=none;fillColor=none;fontSize=14;fontStyle=1;align=center;whiteSpace=wrap;resizeHeight=1;" parent="eWDfw4_UJDr3bdIwtCD6-31" vertex="1">
          <mxGeometry width="90" height="40" relative="1" as="geometry">
            <mxPoint x="10" as="offset" />
          </mxGeometry>
        </mxCell>
        <mxCell id="eWDfw4_UJDr3bdIwtCD6-33" value="nama outlet" style="html=1;shadow=0;dashed=0;shape=mxgraph.bootstrap.rect;strokeColor=none;fillColor=none;fontSize=14;fontStyle=1;align=center;whiteSpace=wrap;resizeHeight=1;" parent="eWDfw4_UJDr3bdIwtCD6-31" vertex="1">
          <mxGeometry width="100" height="40" relative="1" as="geometry">
            <mxPoint x="110" as="offset" />
          </mxGeometry>
        </mxCell>
        <mxCell id="eWDfw4_UJDr3bdIwtCD6-34" value="lokasi" style="html=1;shadow=0;dashed=0;shape=mxgraph.bootstrap.rect;strokeColor=none;fillColor=none;fontSize=14;fontStyle=1;align=center;whiteSpace=wrap;resizeHeight=1;" parent="eWDfw4_UJDr3bdIwtCD6-31" vertex="1">
          <mxGeometry width="90" height="40" relative="1" as="geometry">
            <mxPoint x="220" as="offset" />
          </mxGeometry>
        </mxCell>
        <mxCell id="eWDfw4_UJDr3bdIwtCD6-35" value="alamat" style="html=1;shadow=0;dashed=0;shape=mxgraph.bootstrap.rect;strokeColor=none;fillColor=none;fontSize=14;fontStyle=1;align=center;whiteSpace=wrap;resizeHeight=1;" parent="eWDfw4_UJDr3bdIwtCD6-31" vertex="1">
          <mxGeometry width="120" height="40" relative="1" as="geometry">
            <mxPoint x="320" as="offset" />
          </mxGeometry>
        </mxCell>
        <mxCell id="eWDfw4_UJDr3bdIwtCD6-36" value="" style="strokeColor=#000000;fillColor=inherit;gradientColor=inherit;html=1;shadow=0;dashed=0;shape=mxgraph.bootstrap.horLines;resizeWidth=1;" parent="eWDfw4_UJDr3bdIwtCD6-30" vertex="1">
          <mxGeometry width="440" height="40" relative="1" as="geometry">
            <mxPoint y="120" as="offset" />
          </mxGeometry>
        </mxCell>
        <mxCell id="eWDfw4_UJDr3bdIwtCD6-37" value="" style="strokeColor=#000000;fillColor=inherit;gradientColor=inherit;html=1;shadow=0;dashed=0;shape=mxgraph.bootstrap.horLines;resizeWidth=1;" parent="eWDfw4_UJDr3bdIwtCD6-30" vertex="1">
          <mxGeometry y="80" width="440" height="40" as="geometry">
            <mxPoint y="140" as="offset" />
          </mxGeometry>
        </mxCell>
        <mxCell id="eWDfw4_UJDr3bdIwtCD6-38" value="" style="group" parent="1" vertex="1" connectable="0">
          <mxGeometry x="810" y="140" width="250" height="30" as="geometry" />
        </mxCell>
        <mxCell id="eWDfw4_UJDr3bdIwtCD6-39" value="" style="rounded=0;arcSize=9;fillColor=#F7F8F9;align=left;spacingLeft=5;strokeColor=#000000;html=1;strokeWidth=1;fontColor=#596780;fontSize=12;comic=0;" parent="eWDfw4_UJDr3bdIwtCD6-38" vertex="1">
          <mxGeometry width="163.2" height="30" as="geometry" />
        </mxCell>
        <mxCell id="eWDfw4_UJDr3bdIwtCD6-40" value="cari" style="rounded=0;html=1;shadow=0;dashed=0;whiteSpace=wrap;fontSize=10;fillColor=#666666;align=center;strokeColor=#4D4D4D;fontColor=#ffffff;comic=0;" parent="eWDfw4_UJDr3bdIwtCD6-38" vertex="1">
          <mxGeometry x="169.5" width="80.5" height="30" as="geometry" />
        </mxCell>
        <mxCell id="eWDfw4_UJDr3bdIwtCD6-41" value="daftar outlet&lt;span style=&quot;color: rgba(0 , 0 , 0 , 0) ; font-family: monospace ; font-size: 0px ; font-weight: 400&quot;&gt;%3CmxGraphModel%3E%3Croot%3E%3CmxCell%20id%3D%220%22%2F%3E%3CmxCell%20id%3D%221%22%20parent%3D%220%22%2F%3E%3CmxCell%20id%3D%222%22%20value%3D%22nama%20outlet%22%20style%3D%22fillColor%3Dnone%3BstrokeColor%3Dnone%3Bhtml%3D1%3BfontSize%3D11%3BfontStyle%3D0%3Balign%3Dleft%3BfontColor%3D%23596780%3BfontStyle%3D1%3BfontSize%3D11%3Bcomic%3D0%3B%22%20vertex%3D%221%22%20parent%3D%221%22%3E%3CmxGeometry%20x%3D%2280%22%20y%3D%22136.5%22%20width%3D%2270%22%20height%3D%2220%22%20as%3D%22geometry%22%2F%3E%3C%2FmxCell%3E%3C%2Froot%3E%3C%2FmxGraphModel%3E&lt;/span&gt;" style="fillColor=none;strokeColor=none;html=1;fontSize=11;fontStyle=0;align=left;fontColor=#596780;fontStyle=1;fontSize=11;comic=0;" parent="1" vertex="1">
          <mxGeometry x="620" y="90" width="70" height="20" as="geometry" />
        </mxCell>
        <mxCell id="eWDfw4_UJDr3bdIwtCD6-42" value="form order outlet" style="fillColor=none;strokeColor=none;html=1;fontSize=11;fontStyle=0;align=center;fontColor=#596780;fontStyle=1;fontSize=11;comic=0;" parent="1" vertex="1">
          <mxGeometry x="40" y="30" width="1010" height="20" as="geometry" />
        </mxCell>
        <mxCell id="eWDfw4_UJDr3bdIwtCD6-43" value="kembali" style="rounded=0;html=1;shadow=0;dashed=0;whiteSpace=wrap;fontSize=10;fillColor=#666666;align=center;strokeColor=#4D4D4D;fontColor=#ffffff;comic=0;" parent="1" vertex="1">
          <mxGeometry x="800" y="590" width="80" height="30" as="geometry" />
        </mxCell>
        <mxCell id="eWDfw4_UJDr3bdIwtCD6-44" value="bersihkan" style="rounded=0;html=1;shadow=0;dashed=0;whiteSpace=wrap;fontSize=10;fillColor=#666666;align=center;strokeColor=#4D4D4D;fontColor=#ffffff;comic=0;" parent="1" vertex="1">
          <mxGeometry x="890" y="590" width="80" height="30" as="geometry" />
        </mxCell>
        <mxCell id="eWDfw4_UJDr3bdIwtCD6-45" value="selesai" style="rounded=0;html=1;shadow=0;dashed=0;whiteSpace=wrap;fontSize=10;fillColor=#666666;align=center;strokeColor=#4D4D4D;fontColor=#ffffff;comic=0;" parent="1" vertex="1">
          <mxGeometry x="980" y="590" width="80" height="30" as="geometry" />
        </mxCell>
        <mxCell id="4aZbBNj6QW1r3uf6kM99-4" value="" style="group" vertex="1" connectable="0" parent="1">
          <mxGeometry x="80" y="210" width="150" height="33" as="geometry" />
        </mxCell>
        <mxCell id="eWDfw4_UJDr3bdIwtCD6-14" value="jumlah order" style="fillColor=none;strokeColor=none;html=1;fontSize=11;fontStyle=0;align=left;fontColor=#596780;fontStyle=1;fontSize=11;comic=0;" parent="4aZbBNj6QW1r3uf6kM99-4" vertex="1">
          <mxGeometry y="6.5" width="70" height="20" as="geometry" />
        </mxCell>
        <mxCell id="eWDfw4_UJDr3bdIwtCD6-15" value="" style="rounded=0;arcSize=9;fillColor=#F7F8F9;align=left;spacingLeft=5;strokeColor=#000000;html=1;strokeWidth=1;fontColor=#596780;fontSize=12;comic=0;" parent="4aZbBNj6QW1r3uf6kM99-4" vertex="1">
          <mxGeometry x="80" width="70" height="33" as="geometry" />
        </mxCell>
        <mxCell id="4aZbBNj6QW1r3uf6kM99-5" value="" style="group" vertex="1" connectable="0" parent="1">
          <mxGeometry x="80" y="260" width="150" height="33" as="geometry" />
        </mxCell>
        <mxCell id="4aZbBNj6QW1r3uf6kM99-6" value="rusak" style="fillColor=none;strokeColor=none;html=1;fontSize=11;fontStyle=0;align=left;fontColor=#596780;fontStyle=1;fontSize=11;comic=0;" vertex="1" parent="4aZbBNj6QW1r3uf6kM99-5">
          <mxGeometry y="6.5" width="70" height="20" as="geometry" />
        </mxCell>
        <mxCell id="4aZbBNj6QW1r3uf6kM99-7" value="" style="rounded=0;arcSize=9;fillColor=#F7F8F9;align=left;spacingLeft=5;strokeColor=#000000;html=1;strokeWidth=1;fontColor=#596780;fontSize=12;comic=0;" vertex="1" parent="4aZbBNj6QW1r3uf6kM99-5">
          <mxGeometry x="80" width="70" height="33" as="geometry" />
        </mxCell>
        <mxCell id="4aZbBNj6QW1r3uf6kM99-8" value="" style="group" vertex="1" connectable="0" parent="1">
          <mxGeometry x="80" y="310" width="150" height="33" as="geometry" />
        </mxCell>
        <mxCell id="4aZbBNj6QW1r3uf6kM99-9" value="terpakai" style="fillColor=none;strokeColor=none;html=1;fontSize=11;fontStyle=0;align=left;fontColor=#596780;fontStyle=1;fontSize=11;comic=0;" vertex="1" parent="4aZbBNj6QW1r3uf6kM99-8">
          <mxGeometry y="6.5" width="70" height="20" as="geometry" />
        </mxCell>
        <mxCell id="4aZbBNj6QW1r3uf6kM99-10" value="" style="rounded=0;arcSize=9;fillColor=#F7F8F9;align=left;spacingLeft=5;strokeColor=#000000;html=1;strokeWidth=1;fontColor=#596780;fontSize=12;comic=0;" vertex="1" parent="4aZbBNj6QW1r3uf6kM99-8">
          <mxGeometry x="80" width="70" height="33" as="geometry" />
        </mxCell>
      </root>
    </mxGraphModel>
  </diagram>
</mxfile>
